<svg width="30" height="22" viewBox="0 0 30 22" fill="none" xmlns="http://www.w3.org/2000/svg">
<path d="M24.3294 13.6667C24.0134 13.6667 23.7499 13.5602 23.5388 13.3473C23.3277 13.1343 23.2222 12.8704 23.2222 12.5556V9.44448H20.111C19.7962 9.44448 19.5323 9.33763 19.3194 9.12392C19.1064 8.9102 18.9999 8.64539 18.9999 8.32948C18.9999 8.01357 19.1064 7.75006 19.3194 7.53895C19.5323 7.32784 19.7962 7.22228 20.111 7.22228H23.2222V4.11115C23.2222 3.79635 23.329 3.53246 23.5427 3.31948C23.7564 3.10653 24.0212 3.00005 24.3372 3.00005C24.6531 3.00005 24.9166 3.10653 25.1277 3.31948C25.3388 3.53246 25.4444 3.79635 25.4444 4.11115V7.22228H28.5555C28.8703 7.22228 29.1342 7.32914 29.3472 7.54285C29.5601 7.75656 29.6666 8.02137 29.6666 8.33728C29.6666 8.65319 29.5601 8.91671 29.3472 9.12782C29.1342 9.33893 28.8703 9.44448 28.5555 9.44448H25.4444V12.5556C25.4444 12.8704 25.3375 13.1343 25.1238 13.3473C24.9101 13.5602 24.6453 13.6667 24.3294 13.6667ZM10.9999 10.9778C9.53325 10.9778 8.31473 10.4926 7.34435 9.52228C6.374 8.5519 5.88882 7.33338 5.88882 5.86672C5.88882 4.40005 6.374 3.18154 7.34435 2.21118C8.31473 1.2408 9.53325 0.755615 10.9999 0.755615C12.4666 0.755615 13.6851 1.2408 14.6555 2.21118C15.6258 3.18154 16.111 4.40005 16.111 5.86672C16.111 7.33338 15.6258 8.5519 14.6555 9.52228C13.6851 10.4926 12.4666 10.9778 10.9999 10.9778ZM1.44435 21.6667C1.12955 21.6667 0.865663 21.5602 0.652685 21.3473C0.43973 21.1343 0.333252 20.8704 0.333252 20.5556V18.3334C0.333252 17.563 0.531396 16.8612 0.927685 16.2279C1.324 15.5945 1.8666 15.1186 2.55549 14.8C4.12586 14.0815 5.58022 13.5649 6.91855 13.25C8.25691 12.9352 9.61616 12.7779 10.9963 12.7779C12.3765 12.7779 13.737 12.9352 15.0777 13.25C16.4184 13.5649 17.8666 14.0815 19.4222 14.8C20.111 15.1334 20.6573 15.613 21.061 16.2389C21.4647 16.8649 21.6666 17.563 21.6666 18.3334V20.5556C21.6666 20.8704 21.5601 21.1343 21.3472 21.3473C21.1342 21.5602 20.8703 21.6667 20.5555 21.6667H1.44435ZM2.55545 19.4445H19.4444V18.3334C19.4444 18.0149 19.3648 17.7149 19.2055 17.4334C19.0462 17.1519 18.8073 16.9408 18.4888 16.8C17.0518 16.0963 15.7629 15.6204 14.6222 15.3723C13.4814 15.1241 12.274 15 10.9999 15C9.72585 15 8.51844 15.1278 7.37769 15.3834C6.23695 15.6389 4.94066 16.1112 3.48882 16.8C3.19991 16.9408 2.97212 17.1519 2.80545 17.4334C2.63879 17.7149 2.55545 18.0149 2.55545 18.3334V19.4445ZM10.9999 8.75562C11.8221 8.75562 12.5092 8.47969 13.061 7.92785C13.6129 7.37598 13.8888 6.68894 13.8888 5.86672C13.8888 5.04449 13.6129 4.35746 13.061 3.80562C12.5092 3.25375 11.8221 2.97782 10.9999 2.97782C10.1777 2.97782 9.49066 3.25375 8.93882 3.80562C8.38695 4.35746 8.11102 5.04449 8.11102 5.86672C8.11102 6.68894 8.38695 7.37598 8.93882 7.92785C9.49066 8.47969 10.1777 8.75562 10.9999 8.75562Z" fill="white"/>
</svg>
