<svg width="18" height="12" viewBox="0 0 18 12" fill="none" xmlns="http://www.w3.org/2000/svg">
<g clip-path="url(#clip0_75609_16177)">
<path d="M9.00002 4.75476C9.19945 4.75443 9.39372 4.81633 9.55427 4.93137L17.1228 10.3653C17.2212 10.4361 17.3044 10.525 17.3675 10.627C17.4307 10.7291 17.4725 10.8422 17.4907 10.9599C17.5273 11.1977 17.4654 11.4399 17.3184 11.6333C17.1714 11.8266 16.9514 11.9553 16.7068 11.9909C16.4623 12.0266 16.2131 11.9664 16.0143 11.8234L9.00002 6.7925L1.98577 11.8234C1.8873 11.8942 1.77545 11.9454 1.65662 11.9742C1.53779 12.0029 1.4143 12.0086 1.2932 11.9909C1.1721 11.9733 1.05577 11.9326 0.950844 11.8712C0.845915 11.8099 0.754446 11.729 0.681662 11.6333C0.608878 11.5375 0.556201 11.4288 0.52664 11.3132C0.49708 11.1977 0.491215 11.0776 0.509379 10.9599C0.527545 10.8422 0.569382 10.7291 0.632508 10.627C0.695632 10.525 0.778805 10.4361 0.87728 10.3653L8.44577 4.93137C8.60631 4.81633 8.80059 4.75443 9.00002 4.75476Z" fill="#FF3D00"/>
<path d="M9.00002 -0.000121266C9.19945 -0.000455511 9.39372 0.0614475 9.55427 0.176482L17.1228 5.61045C17.3216 5.75336 17.454 5.96724 17.4907 6.20502C17.5273 6.4428 17.4654 6.68501 17.3184 6.87837C17.1714 7.07173 16.9514 7.20039 16.7068 7.23606C16.4623 7.27173 16.2131 7.21147 16.0143 7.06856L9.00002 2.03761L1.98577 7.06856C1.78689 7.21147 1.53777 7.27173 1.2932 7.23606C1.04863 7.20039 0.828657 7.07173 0.681662 6.87837C0.534667 6.68501 0.472695 6.4428 0.509379 6.20502C0.546065 5.96723 0.678402 5.75336 0.87728 5.61044L8.44577 0.176482C8.60631 0.0614474 8.80059 -0.000455546 9.00002 -0.000121266Z" fill="#FF3D00"/>
</g>
<defs>
<clipPath id="clip0_75609_16177">
<rect width="17" height="12" fill="white" transform="translate(17.5 12) rotate(-180)"/>
</clipPath>
</defs>
</svg>
